<?xml version="1.0" standalone="no"?><!DOCTYPE svg PUBLIC "-//W3C//DTD SVG 1.1//EN" "http://www.w3.org/Graphics/SVG/1.1/DTD/svg11.dtd"><svg t="1734677083221" class="icon" viewBox="0 0 1024 1024" version="1.1" xmlns="http://www.w3.org/2000/svg" p-id="14967" xmlns:xlink="http://www.w3.org/1999/xlink" width="200" height="200"><path d="M845.229942 102.016465 177.692516 102.016465c-60.397578 0-110.084211 48.698119-110.084211 108.788705l0 435.147658c0 60.089563 49.686632 108.798938 110.084211 108.798938l358.623797 0 147.431817 146.690944c17.130146 16.98893 35.538401 19.306718 52.643987 2.313695 17.117866-16.995069 10.810207-34.340109-6.29538-51.334155l-132.947941-126.918621c-18.021445-15.335267-28.135804-27.876907-58.858526-27.582195L184.213024 697.921433c-51.915393-0.294712-68.010977-17.951861-68.728314-67.997674l0-408.135444c0.717338-42.719964 20.594037-72.460312 68.728314-71.089082l653.099598 0c50.484811-0.449231 70.373791 23.719214 68.717058 71.089082l0 408.135444c-0.245593 49.114604-20.125363 67.702961-68.717058 67.997674 0 0-12.288884-0.412392-14.860453-0.412392-25.907043 0-44.162826 9.280364-44.162826 34.715663 0 25.440415 21.851681 22.620184 46.547129 22.620184 1.13894 0 20.394493-0.101307 20.394493-0.101307 60.411905 0 109.36892-48.710398 109.36892-108.790752L954.599885 210.80517C954.598862 150.714584 905.64287 102.016465 845.229942 102.016465zM651.099547 424.360987c0 29.223578 24.140817 52.919257 53.902654 52.919257 29.770024 0 53.912887-23.695678 53.912887-52.919257 0-29.230742-24.142863-52.915164-53.912887-52.915164C675.240363 371.445824 651.099547 395.129222 651.099547 424.360987zM262.765077 424.360987c0 29.223578 24.15412 52.919257 53.912887 52.919257 29.771047 0 53.902654-23.695678 53.902654-52.919257 0-29.230742-24.131607-52.915164-53.902654-52.915164C286.919197 371.445824 262.765077 395.129222 262.765077 424.360987zM456.931289 424.360987c0 29.223578 24.131607 52.919257 53.901631 52.919257 29.782304 0 53.914934-23.695678 53.914934-52.919257 0-29.230742-24.131607-52.915164-53.914934-52.915164C481.062895 371.445824 456.931289 395.129222 456.931289 424.360987z" fill="#1498FF" p-id="14968"></path></svg>