<?xml version="1.0" standalone="no"?><!DOCTYPE svg PUBLIC "-//W3C//DTD SVG 1.1//EN" "http://www.w3.org/Graphics/SVG/1.1/DTD/svg11.dtd"><svg t="1734574091887" class="icon" viewBox="0 0 1105 1024" version="1.1" xmlns="http://www.w3.org/2000/svg" p-id="8642" xmlns:xlink="http://www.w3.org/1999/xlink" width="215.8203125" height="200"><path d="M355.732531 198.169835l355.732531 0 0 813.111263-355.732531 0 0-813.111263Z" fill="#F0D0D3" p-id="8643" data-spm-anchor-id="a313x.search_index.0.i7.6b503a81oFwQQb" class=""></path><path d="M686.062264 1024H381.146998a38.168376 38.168376 0 0 1-38.121701-38.121701V223.584302a38.156707 38.156707 0 0 1 38.121701-38.110032h304.915266a38.156707 38.156707 0 0 1 38.110032 38.110032v762.293997a38.156707 38.156707 0 0 1-38.110032 38.121701zM381.146998 210.877068a12.718902 12.718902 0 0 0-12.707233 12.707234v762.293997a12.718902 12.718902 0 0 0 12.707233 12.765577h304.915266a12.718902 12.718902 0 0 0 12.707233-12.707233V223.584302a12.718902 12.718902 0 0 0-12.707233-12.707234z" fill="#684C4B" p-id="8644"></path><path d="M711.476731 401.450567l241.390765 0 0 609.830531-241.390765 0 0-609.830531Z" fill="#F0D0D3" p-id="8645" data-spm-anchor-id="a313x.search_index.0.i8.6b503a81oFwQQb" class="selected"></path><path d="M934.734309 1024h-205.136059a30.875427 30.875427 0 0 1-30.828753-30.840421V419.583755a30.863759 30.863759 0 0 1 30.828753-30.828752h205.136059a30.875427 30.875427 0 0 1 30.840421 30.828752v573.575824a30.875427 30.875427 0 0 1-30.840421 30.840421z m-205.136059-609.842199a5.437622 5.437622 0 0 0-5.425954 5.425954v573.575824a5.437622 5.437622 0 0 0 5.425954 5.425954h205.136059a5.425954 5.425954 0 0 0 5.425954-5.425954V419.583755a5.425954 5.425954 0 0 0-5.425954-5.425954z" fill="#684C4B" p-id="8646"></path><path d="M139.756233 515.792333l215.987967 0 0 495.488765-215.987967 0 0-495.488765Z" fill="#F0D0D3" p-id="8647"></path><path d="M340.27148 1024h-185.065864a28.191622 28.191622 0 0 1-28.156617-28.168285V531.253384a28.179954 28.179954 0 0 1 28.156617-28.156616h185.065864a28.179954 28.179954 0 0 1 28.168285 28.156616v464.578331a28.191622 28.191622 0 0 1-28.168285 28.168285z m-185.065864-495.500433a2.765486 2.765486 0 0 0-2.753818 2.753817v464.578331a2.765486 2.765486 0 0 0 2.753818 2.753818h185.065864a2.753817 2.753817 0 0 0 2.753817-2.753818V531.253384a2.753817 2.753817 0 0 0-2.753817-2.753817z" fill="#684C4B" p-id="8648"></path><path d="M0 998.573864h1105.330963v25.414467H0z" fill="#684C4B" p-id="8649"></path><path d="M628.512147 66.208305c0 70.584074-107.608916 127.795797-107.608915 127.795797s-107.620584-57.176717-107.620585-127.795797 104.248325-63.897899 107.620585-20.175213c3.360591-43.722686 107.608916-50.408861 107.608915 20.175213z" fill="#EBDD9E" p-id="8650"></path><path d="M520.903232 201.192032l-2.987192-1.586945c-4.539131-2.403756-110.992844-59.848854-110.992844-133.396782 0-42.124071 32.614066-58.343589 60.537308-59.393774 20.38525-0.770135 42.765851 6.441132 53.442728 21.330416 10.653539-14.877615 32.905784-22.088883 53.431059-21.330416 27.923242 1.073522 60.595652 17.269702 60.595651 59.393774 0 73.512922-106.453713 130.993026-110.992844 133.396782zM470.529377 19.463421h-2.590455c-23.337436 0.898491-48.308492 13.629062-48.308492 46.674872 0 59.510461 84.213136 110.759469 101.272802 120.514517 17.059665-9.755048 101.261133-60.969051 101.261133-120.514517 0-33.069146-24.947719-45.799717-48.308492-46.674872-21.645472-0.851816-45.22795 9.019919-46.674871 27.013082h-12.613884c-1.341903-17.223027-22.987374-27.013082-44.037741-27.013082z" fill="#684C4B" p-id="8651"></path><path d="M520.903232 200.725284a6.744519 6.744519 0 0 1-3.162223-0.781804c-4.539131-2.415425-111.191212-59.965541-111.191212-133.735175 0-39.673641 30.583709-58.600301 60.88737-59.767173 20.525275-0.840148 42.614157 6.359451 53.466065 21.003692 10.840239-14.702584 32.76576-21.902183 53.454396-21.003692 30.338666 1.166872 60.88737 20.093532 60.887369 59.767173 0 73.769634-106.652081 131.31975-111.191212 133.735175a6.73285 6.73285 0 0 1-3.150553 0.781804z m-50.373855-180.865126h-2.578787c-23.174074 0.886823-47.946761 13.524044-47.946761 46.324809 0 59.207074 83.45467 110.106021 100.899403 120.094444 17.421396-10.000091 100.887734-60.957382 100.887734-120.094444 0-32.800766-24.772688-45.437987-47.946762-46.324809-21.540453-0.81681-44.86622 8.9149-46.243128 26.66302a6.721181 6.721181 0 0 1-13.407357 0c-1.318565-17.024659-22.789006-26.698026-43.664342-26.698026z" fill="#684C4B" p-id="8652"></path><path d="M520.903232 207.084735a13.255663 13.255663 0 0 1-6.126077-1.516933c-11.703724-6.231095-114.57514-63.407813-114.57514-139.359497 0-43.886048 33.652582-64.831396 66.990109-66.114955 21.283741-0.886823 41.31893 6.00939 53.676102 17.864807 12.368841-11.855417 32.462373-18.809973 53.676101-17.864807 33.325858 1.283559 66.966772 22.170564 66.966772 66.114955 0 75.951684-102.813073 133.081727-114.540134 139.336159a13.232326 13.232326 0 0 1-6.067733 1.540271z m-50.175487-194.365833c-0.991841 0-1.983682 0-2.975523 0.058344-27.281462 1.050185-54.78463 17.981494-54.78463 53.431059 0 69.732258 103.408177 125.777109 107.818953 128.13419h0.17503a0.478417 0.478417 0 0 0 0.210037-0.058343c4.3641-2.333744 107.772278-58.343589 107.772278-128.110853 0-35.449565-27.503168-52.380874-54.772962-53.431059-20.105201-0.630111-39.206892 6.452801-48.098454 18.506586l-5.110899 6.91955-5.18091-6.861206c-8.319796-11.306988-26.196271-18.588267-45.111263-18.588268z m50.175487 180.865126l-3.162223-1.808651c-17.374721-9.941748-104.084963-62.742696-104.084963-125.602078 0-37.339897 29.113451-51.715757 54.049501-52.672592h2.82383c23.605816 0 48.355167 11.1903 50.000456 32.57906 2.462099-22.357263 29.591868-33.407539 53.547746-32.520717 24.947719 0.956835 54.072838 15.321026 54.072838 52.672592 0 62.777702-86.721911 115.636993-104.084963 125.602079zM470.529377 26.184603h-2.333744c-9.813392 0.373399-41.844022 4.3641-41.844022 39.977027 0 52.859292 72.906149 99.930899 94.516615 112.731483 21.633803-12.83559 94.516614-59.942203 94.516614-112.731483 0-35.612927-32.03063-39.603628-41.855691-39.977027-17.759789-0.571767-38.58845 7.001231-39.673641 20.805324a13.080633 13.080633 0 0 1-26.079584 0c-0.921829-13.01062-19.685127-20.805324-37.246547-20.805324z" fill="#684C4B" p-id="8653"></path><path d="M406.561466 312.5116l88.938967 0 0 88.938967-88.938967 0 0-88.938967Z" fill="#FFFFFF" p-id="8654"></path><path d="M482.781531 414.157801H419.257031a25.426136 25.426136 0 0 1-25.402799-25.402798v-63.5245a25.437805 25.437805 0 0 1 25.402799-25.414468h63.5245a25.437805 25.437805 0 0 1 25.414467 25.414468v63.5245a25.437805 25.437805 0 0 1-25.414467 25.402798z m-63.5245-88.927298v63.5245h63.536168v-63.5245z" fill="#684C4B" p-id="8655"></path><path d="M559.013264 312.5116l88.938967 0 0 88.938967-88.938967 0 0-88.938967Z" fill="#FFFFFF" p-id="8656"></path><path d="M635.244997 414.157801h-63.524499a25.437805 25.437805 0 0 1-25.414468-25.402798v-63.5245a25.437805 25.437805 0 0 1 25.414468-25.414468h63.524499a25.437805 25.437805 0 0 1 25.356124 25.414468v63.5245a25.426136 25.426136 0 0 1-25.356124 25.402798z m-63.524499-88.927298v63.5245h63.536168v-63.5245z" fill="#684C4B" p-id="8657"></path><path d="M406.561466 473.446556l88.938967 0 0 88.938967-88.938967 0 0-88.938967Z" fill="#FFFFFF" p-id="8658"></path><path d="M482.781531 575.06942H419.257031a25.426136 25.426136 0 0 1-25.402799-25.402799v-63.512831a25.437805 25.437805 0 0 1 25.402799-25.437805h63.5245a25.437805 25.437805 0 0 1 25.414467 25.414468v63.524499a25.437805 25.437805 0 0 1-25.414467 25.414468z m-63.5245-88.91563v63.5245h63.536168v-63.5245z" fill="#684C4B" p-id="8659"></path><path d="M559.013264 473.446556l88.938967 0 0 88.938967-88.938967 0 0-88.938967Z" fill="#FFFFFF" p-id="8660"></path><path d="M635.244997 575.06942h-63.524499a25.437805 25.437805 0 0 1-25.414468-25.402799v-63.512831a25.437805 25.437805 0 0 1 25.414468-25.437805h63.524499a25.437805 25.437805 0 0 1 25.356124 25.437805v63.5245a25.426136 25.426136 0 0 1-25.356124 25.39113z m-63.524499-88.91563v63.5245h63.536168v-63.5245z" fill="#684C4B" p-id="8661"></path><path d="M406.561466 634.369844l88.938967 0 0 88.938967-88.938967 0 0-88.938967Z" fill="#FFFFFF" p-id="8662"></path><path d="M482.781531 736.016044H419.257031a25.426136 25.426136 0 0 1-25.402799-25.402798v-63.5245a25.437805 25.437805 0 0 1 25.402799-25.414467h63.5245a25.437805 25.437805 0 0 1 25.414467 25.414467v63.5245a25.437805 25.437805 0 0 1-25.414467 25.402798z m-63.5245-88.927298v63.5245h63.536168v-63.5245z" fill="#684C4B" p-id="8663"></path><path d="M559.013264 634.369844l88.938967 0 0 88.938967-88.938967 0 0-88.938967Z" fill="#FFFFFF" p-id="8664"></path><path d="M635.244997 736.016044h-63.524499a25.437805 25.437805 0 0 1-25.414468-25.402798v-63.5245a25.437805 25.437805 0 0 1 25.414468-25.414467h63.524499a25.437805 25.437805 0 0 1 25.356124 25.414467v63.5245a25.426136 25.426136 0 0 1-25.356124 25.402798z m-63.524499-88.927298v63.5245h63.536168v-63.5245z" fill="#684C4B" p-id="8665"></path><path d="M406.561466 795.3048l88.938967 0 0 88.938967-88.938967 0 0-88.938967Z" fill="#FFFFFF" p-id="8666"></path><path d="M482.781531 896.951001H419.257031a25.437805 25.437805 0 0 1-25.402799-25.414468v-63.5245a25.437805 25.437805 0 0 1 25.402799-25.414467h63.5245a25.437805 25.437805 0 0 1 25.414467 25.414467v63.5245a25.437805 25.437805 0 0 1-25.414467 25.414468z m-63.5245-88.938968v63.5245h63.536168v-63.5245z" fill="#684C4B" p-id="8667"></path><path d="M559.013264 795.3048l88.938967 0 0 88.938967-88.938967 0 0-88.938967Z" fill="#FFFFFF" p-id="8668"></path><path d="M635.244997 896.951001h-63.524499a25.437805 25.437805 0 0 1-25.414468-25.414468v-63.5245a25.437805 25.437805 0 0 1 25.414468-25.414467h63.524499a25.437805 25.437805 0 0 1 25.356124 25.414467v63.5245a25.437805 25.437805 0 0 1-25.356124 25.414468z m-63.524499-88.938968v63.5245h63.536168v-63.5245z" fill="#684C4B" p-id="8669"></path><path d="M787.708464 634.369844l88.938968 0 0 88.938967-88.938968 0 0-88.938967Z" fill="#FFFFFF" p-id="8670"></path><path d="M863.928529 736.016044h-63.5245a25.426136 25.426136 0 0 1-25.449473-25.402798v-63.5245a25.437805 25.437805 0 0 1 25.402798-25.414467h63.5245a25.437805 25.437805 0 0 1 25.426136 25.414467v63.5245a25.437805 25.437805 0 0 1-25.379461 25.402798z m-63.5245-88.927298v63.5245h63.536169v-63.5245z" fill="#684C4B" p-id="8671" data-spm-anchor-id="a313x.search_index.0.i9.6b503a81oFwQQb"></path><path d="M787.708464 795.3048l88.938968 0 0 88.938967-88.938968 0 0-88.938967Z" fill="#FFFFFF" p-id="8672"></path><path d="M863.928529 896.951001h-63.5245a25.437805 25.437805 0 0 1-25.449473-25.414468v-63.5245a25.437805 25.437805 0 0 1 25.402798-25.414467h63.5245a25.437805 25.437805 0 0 1 25.426136 25.414467v63.5245a25.437805 25.437805 0 0 1-25.379461 25.414468z m-63.5245-88.938968v63.5245h63.536169v-63.5245z" fill="#684C4B" p-id="8673"></path><path d="M832.166279 509.444551m-57.176717 0a57.176717 57.176717 0 1 0 114.353434 0 57.176717 57.176717 0 1 0-114.353434 0Z" fill="#FFFFFF" p-id="8674"></path><path d="M832.131273 579.328502a69.883951 69.883951 0 1 1 69.883951-69.883951 70.012307 70.012307 0 0 1-69.883951 69.883951z m0-114.353435a44.469484 44.469484 0 1 0 44.469484 44.469484 44.527827 44.527827 0 0 0-44.469484-44.469484z" fill="#684C4B" p-id="8675"></path><path d="M203.280733 786.833311l88.938967 0 0 88.938967-88.938967 0 0-88.938967Z" fill="#FFFFFF" p-id="8676"></path><path d="M279.500798 888.479511h-63.477825a25.437805 25.437805 0 0 1-25.402799-25.414467V799.540544a25.426136 25.426136 0 0 1 25.402799-25.402798h63.477825a25.437805 25.437805 0 0 1 25.414467 25.402798v63.5245a25.437805 25.437805 0 0 1-25.414467 25.414467z m-63.477825-88.938967v63.5245h63.536168V799.540544z" fill="#684C4B" p-id="8677"></path><path d="M247.750217 661.896349m-57.176718 0a57.176717 57.176717 0 1 0 114.353435 0 57.176717 57.176717 0 1 0-114.353435 0Z" fill="#FFFFFF" p-id="8678"></path><path d="M247.738548 731.7803a69.883951 69.883951 0 1 1 69.883951-69.872282 70.012307 70.012307 0 0 1-69.883951 69.872282z m0-114.353435a44.469484 44.469484 0 1 0 44.469483 44.469484 44.516158 44.516158 0 0 0-44.469483-44.457815z" fill="#684C4B" p-id="8679"></path></svg>