<?xml version="1.0" standalone="no"?><!DOCTYPE svg PUBLIC "-//W3C//DTD SVG 1.1//EN" "http://www.w3.org/Graphics/SVG/1.1/DTD/svg11.dtd"><svg t="1733982172995" class="icon" viewBox="0 0 1024 1024" version="1.1" xmlns="http://www.w3.org/2000/svg" p-id="31574" xmlns:xlink="http://www.w3.org/1999/xlink" width="200" height="200"><path d="M0 0h1024v1024H0z" fill="#FFFFFF" opacity=".01" p-id="31575"></path><path d="M960.176 831.36h-66.144V320.128c0-17.52-14.112-31.84-31.76-32.192H640v-159.68a31.424 31.424 0 0 0-9.056-22.736 31.856 31.856 0 0 0-22.688-9.472H161.728a30.544 30.544 0 0 0-23.136 9.04c-6.064 6.144-9.2 14.56-8.624 23.152v703.152H63.84a30.544 30.544 0 0 0-23.136 9.04c-6.064 6.144-9.2 14.56-8.624 23.152v32.208c-0.576 8.576 2.56 17.008 8.64 23.152 6.048 6.144 14.464 9.44 23.12 9.04H960.16a30.544 30.544 0 0 0 23.136-9.04c6.064-6.144 9.2-14.56 8.624-23.152v-32.208a30.112 30.112 0 0 0-8.64-23.152 30.544 30.544 0 0 0-23.12-9.04zM671.76 479.824h95.92v95.936h-95.92v-95.936z m0 159.68h95.92v95.936h-95.92v-95.936z m-255.36-319.36h95.936v95.936h-95.92v-95.952z m0 159.68h95.936v95.936h-95.92v-95.936z m0 159.68h95.936v95.936h-95.92v-95.936z m-159.424-319.36h95.936v95.936H256.96v-95.952z m0 159.68h95.936v95.936H256.96v-95.936z m0 159.68h95.936v95.936H256.96v-95.936z" fill="#848484" p-id="31576"></path></svg>