<?xml version="1.0" standalone="no"?><!DOCTYPE svg PUBLIC "-//W3C//DTD SVG 1.1//EN" "http://www.w3.org/Graphics/SVG/1.1/DTD/svg11.dtd"><svg t="1734426124030" class="icon" viewBox="0 0 1024 1024" version="1.1" xmlns="http://www.w3.org/2000/svg" p-id="10836" xmlns:xlink="http://www.w3.org/1999/xlink" width="200" height="200"><path d="M722.433768 0.326747a51.194202 51.194202 0 0 1 45.230078 56.531198L739.839797 307.171997H921.553618a51.194202 51.194202 0 0 1 51.13021 48.634492L972.74782 358.366199a51.194202 51.194202 0 0 1-51.194202 51.194202H728.461886l-22.755823 204.764011H921.553618a51.194202 51.194202 0 0 1 51.13021 48.64729L972.74782 665.531413a51.194202 51.194202 0 0 1-51.194202 51.194202l-227.225467-0.012799-29.052709 261.627971a51.194202 51.194202 0 0 1-53.997085 45.447653l-2.546912-0.217575a51.194202 51.194202 0 0 1-45.230078-56.531198l27.811251-250.326851H387.162938l-29.05271 261.627971a51.194202 51.194202 0 0 1-53.997085 45.447653l-2.546911-0.217575a51.194202 51.194202 0 0 1-45.230078-56.531198l27.81125-250.326851H102.446382a51.194202 51.194202 0 0 1-51.13021-48.634492L51.25218 665.531413a51.194202 51.194202 0 0 1 51.194202-51.194203h193.078934L318.281139 409.560401H102.446382a51.194202 51.194202 0 0 1-51.13021-48.634492L51.25218 358.366199a51.194202 51.194202 0 0 1 51.194202-51.194202h227.212668l29.065508-261.615172A51.194202 51.194202 0 0 1 412.721643 0.109172l2.546912 0.217575a51.194202 51.194202 0 0 1 45.230078 56.531198L432.674584 307.171997h204.14968l29.065508-261.615172A51.194202 51.194202 0 0 1 722.433768 0.326747zM625.446352 409.560401H421.296672l-22.755823 204.764011h204.14968L625.446352 409.560401z" fill="#000000" p-id="10837"></path></svg>