<?xml version="1.0" standalone="no"?><!DOCTYPE svg PUBLIC "-//W3C//DTD SVG 1.1//EN" "http://www.w3.org/Graphics/SVG/1.1/DTD/svg11.dtd"><svg t="1734681701499" class="icon" viewBox="0 0 1024 1024" version="1.1" xmlns="http://www.w3.org/2000/svg" p-id="18497" xmlns:xlink="http://www.w3.org/1999/xlink" width="200" height="200"><path d="M496.64 313.6c-94.72 6.4-145.92 69.12-152.32 186.88 6.4 117.76 57.6 180.48 152.32 186.88 19.2 0 37.12-2.56 53.76-6.4L520.96 652.8c-10.24-10.24-15.36-20.48-15.36-32 3.84-38.4 21.76-57.6 53.76-60.16 12.8 0 23.04 3.84 32 12.8l38.4 32c15.36-32 21.76-66.56 21.76-104.96-6.4-117.76-58.88-180.48-154.88-186.88z" fill="#F19465" p-id="18498"></path><path d="M506.88 78.08C267.52 78.08 74.24 272.64 74.24 512S268.8 945.92 508.16 945.92 940.8 751.36 940.8 512 746.24 78.08 506.88 78.08z m232.96 742.4c-15.36 2.56-33.28-6.4-53.76-25.6l-47.36-32c-38.4 19.2-85.76 28.16-142.08 28.16C322.56 780.8 230.4 684.8 217.6 500.48c12.8-185.6 104.96-285.44 279.04-298.24 171.52 12.8 263.68 111.36 279.04 298.24 0 75.52-17.92 138.24-53.76 186.88l47.36 40.96c19.2 15.36 28.16 30.72 28.16 47.36-5.12 25.6-23.04 40.96-57.6 44.8z" fill="#F19465" p-id="18499"></path></svg>