<?xml version="1.0" standalone="no"?><!DOCTYPE svg PUBLIC "-//W3C//DTD SVG 1.1//EN" "http://www.w3.org/Graphics/SVG/1.1/DTD/svg11.dtd"><svg t="1734574040369" class="icon" viewBox="0 0 1024 1024" version="1.1" xmlns="http://www.w3.org/2000/svg" p-id="5827" id="mx_n_1734574040370" xmlns:xlink="http://www.w3.org/1999/xlink" width="200" height="200"><path d="M443.405389 287.81239V40.536956a20.268478 20.268478 0 0 0-40.536956 0v247.275434a20.268478 20.268478 0 1 0 40.536956 0zM580.598664 40.536956v247.275434c0 11.200361 9.06001 20.268478 20.268479 20.268478 11.196307 0 20.268478-9.068117 20.268478-20.268478V40.536956a20.268478 20.268478 0 1 0-40.536957 0z" fill="#6E6E96" p-id="5828"></path><path d="M369.044397 56.751739h285.91526a20.268478 20.268478 0 1 0 0-40.536956H369.044397a20.268478 20.268478 0 0 0 0 40.536956zM340.06858 927.40854v56.054504a20.268478 20.268478 0 1 0 40.536957 0v-56.054504a20.268478 20.268478 0 1 0-40.536957 0zM681.969431 983.463044v-56.054504c0-11.196307-9.072171-20.268478-20.268478-20.268478s-20.268478 9.072171-20.268478 20.268478v56.054504c0 11.196307 9.072171 20.268478 20.268478 20.268478s20.268478-9.072171 20.268478-20.268478z" fill="#6E6E96" p-id="5829"></path><path d="M766.087669 862.54941c0 33.442989-27.362446 60.805434-60.805434 60.805435H318.721819c-33.442989 0-60.805434-27.362446-60.805434-60.805435V348.617824c0-33.442989 27.362446-60.805434 60.805434-60.805434h386.556362c33.442989 0 60.805434 27.362446 60.805434 60.805434l0.004054 513.931586z" fill="#C6D69B" p-id="5830"></path><path d="M705.282235 943.623323H318.721819c-44.704155 0-81.073913-36.369757-81.073913-81.073913V348.617824c0-44.704155 36.369757-81.073913 81.073913-81.073912h386.556362c44.704155 0 81.073913 36.369757 81.073913 81.073912l0.004053 513.931586c0 44.704155-36.369757 81.073913-81.073912 81.073913zM318.721819 308.080868c-22.352078 0-40.536956 18.184879-40.536956 40.536956v513.931586c0 22.352078 18.184879 40.536956 40.536956 40.536957h386.560416c22.352078 0 40.536956-18.184879 40.536956-40.536957L745.815137 348.617824c0-22.352078-18.184879-40.536956-40.536956-40.536956H318.721819z" fill="#6E6E96" p-id="5831"></path><path d="M729.632784 832.539902c0 43.058355-13.665008 56.723363-56.723363 56.723363H348.131381c-43.062409 0-56.715256-13.665008-56.715256-56.723363V370.142948c0-43.058355 13.652847-56.727417 56.715256-56.727416h324.769933c43.058355 0 56.723363 1.799841 56.723363 56.727416v462.384793l0.008107 0.012161z" fill="#DBEDAB" p-id="5832"></path><path d="M390.046594 388.781841h32.218773v442.124421h-32.218773zM495.345391 388.781841h32.222827v442.124421h-32.222827zM601.017129 388.781841h32.214719v442.124421h-32.214719z" fill="#B9CC85" p-id="5833"></path><path d="M304.047441 845.179325V382.778317c0-43.050248 13.660954-56.715256 56.723363-56.715255h324.769933c17.244421 0 29.766287 0.291866 38.591182 4.167199-7.38178-16.032366-22.984454-16.806622-51.230605-16.806622H348.131381c-43.062409 0-56.715256 13.669062-56.715256 56.727417v462.384792c0 26.66521 5.261697 42.036824 19.478008 49.900993-4.84822-8.747875-6.846692-20.856264-6.846692-37.257516z" fill="#ECFFB8" opacity=".64" p-id="5834"></path></svg>